<svg version="1.1" id="Layer_1" xmlns="http://www.w3.org/2000/svg" xmlns:xlink="http://www.w3.org/1999/xlink" x="0px" y="0px"
	 width="100%" viewBox="0 0 2000 454" enable-background="new 0 0 2000 454" xml:space="preserve">
<path fill="#4C6971" opacity="1.000000" stroke="none" 
	d="
M1337.000000,455.000000 
	C891.333313,455.000000 446.166656,455.000000 1.000000,455.000000 
	C1.000000,303.666656 1.000000,152.333328 1.000000,1.000000 
	C667.666687,1.000000 1334.333374,1.000000 2001.000000,1.000000 
	C2001.000000,152.333328 2001.000000,303.666656 2001.000000,455.000000 
	C1779.833374,455.000000 1558.666626,455.000000 1337.000000,455.000000 
M1363.500000,447.999847 
	C1564.233276,447.999847 1764.966675,447.999847 1965.657959,447.999847 
	C1965.657959,300.929047 1965.657959,154.687119 1965.657959,8.414697 
	C1322.310547,8.414697 679.305237,8.414697 36.341881,8.414697 
	C36.341881,155.071426 36.341881,301.313416 36.341881,447.999847 
	C478.622620,447.999847 920.561279,447.999847 1363.500000,447.999847 
z"/>
<path fill="#FF4136" opacity="1.000000" stroke="none" 
	d="
M1363.000000,447.999847 
	C920.561279,447.999847 478.622620,447.999847 36.341881,447.999847 
	C36.341881,301.313416 36.341881,155.071426 36.341881,8.414697 
	C679.305237,8.414697 1322.310547,8.414697 1965.657959,8.414697 
	C1965.657959,154.687119 1965.657959,300.929047 1965.657959,447.999847 
	C1764.966675,447.999847 1564.233276,447.999847 1363.000000,447.999847 
M57.769279,97.499886 
	C57.769279,206.894638 57.769279,316.289398 57.769279,425.658234 
	C190.052399,425.658234 321.480530,425.658234 453.169800,425.658234 
	C453.169800,293.797424 453.169800,162.217712 453.169800,30.350956 
	C321.365570,30.350956 189.808167,30.350956 57.769276,30.350956 
	C57.769276,52.582279 57.769276,74.541077 57.769279,97.499886 
M1129.054565,291.973022 
	C1132.688599,291.842621 1133.224609,289.457947 1133.237183,286.477936 
	C1133.277588,276.981567 1133.430542,267.485748 1133.510254,257.989441 
	C1133.547485,253.550797 1133.516724,249.111572 1133.516724,244.017715 
	C1144.635864,244.017715 1154.932495,244.345337 1165.199707,243.935715 
	C1178.368164,243.410370 1190.677124,240.023010 1201.810791,232.406982 
	C1223.774536,217.382538 1229.463745,172.416016 1196.371094,156.878540 
	C1188.092163,152.991470 1178.795166,149.969666 1169.757202,149.277039 
	C1151.694946,147.892822 1133.488770,148.357727 1115.340942,148.136353 
	C1107.592651,148.041824 1107.155273,148.591431 1107.200195,156.310806 
	C1107.402832,191.128250 1107.641479,225.945602 1107.748535,260.763367 
	C1107.773682,268.922455 1107.274292,277.081909 1107.132690,285.243195 
	C1107.029907,291.171631 1107.855469,291.961609 1113.632812,291.997864 
	C1118.464355,292.028168 1123.296021,292.001465 1129.054565,291.973022 
M1732.296021,285.005585 
	C1731.760864,295.475555 1727.697754,300.480072 1717.631348,302.828430 
	C1708.094116,305.053314 1698.814331,304.351013 1689.839966,300.212097 
	C1680.180298,295.757080 1680.161011,295.799622 1673.663574,304.511444 
	C1673.364990,304.911774 1673.079712,305.324341 1672.754272,305.702026 
	C1670.504517,308.312683 1670.745728,310.473511 1673.264038,313.009094 
	C1681.837524,321.641541 1692.156372,326.503052 1704.157593,327.738403 
	C1729.857300,330.383850 1758.890259,313.863861 1757.155273,281.035248 
	C1755.960815,258.434204 1756.421265,235.743790 1756.223633,213.092606 
	C1756.082397,196.903290 1758.262329,199.212143 1742.265991,198.916687 
	C1737.373779,198.826324 1732.562012,198.331985 1732.940796,206.257019 
	C1730.677368,204.797989 1729.321411,203.955963 1727.997803,203.065842 
	C1711.756958,192.144577 1689.707764,194.962158 1676.783325,209.617264 
	C1661.847534,226.553085 1659.055298,253.533829 1670.212036,273.116791 
	C1679.248047,288.977753 1694.917114,296.800934 1712.226318,292.759796 
	C1718.254517,291.352386 1723.591431,287.005341 1729.266357,284.043701 
	C1730.240479,283.535400 1731.483398,280.372742 1732.296021,285.005585 
M998.035706,275.476135 
	C1000.151123,278.048828 1002.605957,280.415710 1004.315674,283.234497 
	C1008.683594,290.436005 1014.758240,293.398376 1023.094788,292.061035 
	C1025.368408,291.696320 1027.786133,292.258026 1030.071533,291.931519 
	C1032.224854,291.623932 1034.291138,290.706177 1036.395630,290.056854 
	C1035.610352,288.140381 1035.182983,285.956451 1033.982544,284.350159 
	C1025.212036,272.613464 1016.276245,261.000275 1007.421753,249.325974 
	C1006.264832,247.800522 1005.274292,246.148834 1004.126587,244.436172 
	C1007.843994,241.657974 1011.224609,239.249908 1014.476746,236.679276 
	C1025.034546,228.333694 1033.294800,218.365997 1036.695557,204.977570 
	C1037.689941,201.062454 1036.762329,198.803009 1032.275757,198.863602 
	C1026.613281,198.940079 1020.924377,198.588348 1015.299927,199.057388 
	C1013.495483,199.207886 1010.818176,201.045929 1010.302734,202.670914 
	C1002.933838,225.904327 983.673401,233.462204 962.900269,239.114914 
	C962.688965,239.172409 962.369568,238.832794 961.621704,238.403839 
	C961.621704,227.699066 961.672180,216.728561 961.610413,205.758698 
	C961.506287,187.270142 961.237793,168.781906 961.248962,150.293686 
	C961.251892,145.485687 959.308472,143.664795 954.641907,143.985641 
	C951.326111,144.213654 947.981934,144.025162 944.650452,144.030258 
	C936.927063,144.042084 936.758667,144.245178 936.793091,151.852097 
	C936.940063,184.332397 937.116577,216.812714 937.172424,249.293213 
	C937.193665,261.618622 936.936340,273.944794 936.766846,286.270081 
	C936.723511,289.424042 937.261475,292.000916 941.220886,291.993896 
	C946.384644,291.984711 951.548401,291.998474 956.712158,291.985870 
	C959.866394,291.978149 961.158813,290.247772 961.138245,287.230988 
	C961.118896,284.399750 961.109863,281.564056 961.242126,278.737152 
	C961.504700,273.122162 959.983032,266.177948 962.736877,262.287354 
	C965.319153,258.639221 972.512512,258.335419 977.590210,256.339539 
	C980.176697,255.322861 981.834656,255.820084 983.566223,258.000305 
	C988.122009,263.736237 992.899109,269.296356 998.035706,275.476135 
M1352.081665,189.499741 
	C1352.067017,210.321564 1352.101440,231.143600 1352.017456,251.965149 
	C1351.973877,262.791626 1351.730469,273.617462 1351.559082,284.443298 
	C1351.448975,291.392639 1351.987183,291.984161 1358.691406,292.000824 
	C1362.689209,292.010773 1366.689575,291.914429 1370.684204,292.024750 
	C1374.517334,292.130585 1376.144409,290.377441 1376.037476,286.591187 
	C1375.934082,282.930420 1376.066284,279.262848 1376.099243,275.598328 
	C1376.223755,261.738342 1376.224731,261.739594 1389.175903,257.498230 
	C1390.281738,257.136108 1391.425049,256.841675 1392.467407,256.341736 
	C1394.995728,255.129044 1396.696045,255.866699 1398.426758,258.027374 
	C1403.839600,264.785004 1409.481201,271.358643 1414.982666,278.045868 
	C1426.775024,292.379730 1426.761841,292.390625 1445.249023,292.001556 
	C1445.415527,291.998047 1445.596191,292.040253 1445.746460,291.990143 
	C1447.539307,291.392578 1449.327515,290.781494 1451.116943,290.173981 
	C1450.485962,288.369995 1450.248779,286.272980 1449.159912,284.809845 
	C1442.301514,275.593719 1435.232422,266.534790 1428.279053,257.388947 
	C1425.091553,253.196274 1422.008545,248.924225 1418.790161,244.569229 
	C1422.670166,241.648819 1426.176392,239.128571 1429.553467,236.445724 
	C1440.094238,228.071838 1448.297729,218.085114 1451.587769,204.639481 
	C1452.552734,200.695847 1451.291626,198.889160 1447.286621,198.888626 
	C1442.622559,198.888016 1437.925049,199.224518 1433.303101,198.780304 
	C1428.065796,198.276917 1425.667480,200.282669 1423.994141,205.273178 
	C1418.365601,222.060806 1394.891846,238.577927 1376.369507,238.875809 
	C1376.369507,236.269165 1376.378174,233.653152 1376.368286,231.037201 
	C1376.266235,204.219025 1376.193726,177.400635 1376.031250,150.582809 
	C1375.995483,144.676132 1375.246338,144.082458 1369.266235,144.038010 
	C1365.435059,144.009521 1361.589355,144.242828 1357.776001,143.981430 
	C1352.855835,143.644180 1351.356323,145.904892 1351.480591,150.526535 
	C1351.820679,163.180435 1351.893066,175.841522 1352.081665,189.499741 
M1308.088135,203.754517 
	C1307.904541,205.466766 1307.720947,207.179031 1307.451782,209.688736 
	C1304.393555,207.500580 1302.171265,205.811829 1299.853027,204.267288 
	C1276.208008,188.513611 1247.474976,196.981110 1236.235474,223.024460 
	C1231.276123,234.515915 1230.109131,246.517502 1232.288208,258.742310 
	C1235.866455,278.819061 1248.384033,291.497162 1266.706909,293.663239 
	C1279.971558,295.231323 1291.612793,290.865143 1302.148560,283.052277 
	C1303.558838,282.006531 1304.989380,280.988312 1307.409912,279.232513 
	C1307.409912,282.093048 1307.431030,283.844086 1307.405762,285.594452 
	C1307.341797,290.032013 1309.017578,292.436646 1313.952515,292.070221 
	C1318.259033,291.750519 1322.608643,291.947205 1326.937622,292.017059 
	C1330.498047,292.074493 1332.081055,290.453278 1332.042603,286.873627 
	C1331.746094,259.230560 1331.477905,231.587128 1331.277710,203.943237 
	C1331.251343,200.296967 1329.630371,198.846008 1326.096069,198.939178 
	C1321.935425,199.048828 1317.766602,199.065231 1313.607300,198.932632 
	C1310.632324,198.837784 1308.848877,200.026199 1308.088135,203.754517 
M1624.993286,200.410294 
	C1624.276733,203.236115 1623.560303,206.061951 1622.729126,209.340042 
	C1619.835449,207.316666 1617.340088,205.435410 1614.714844,203.757446 
	C1591.122192,188.677521 1562.974731,197.304031 1551.956177,223.022110 
	C1546.240479,236.362961 1545.423828,250.143417 1549.225464,264.074585 
	C1554.697632,284.128448 1570.613159,295.383667 1590.872437,293.831116 
	C1601.159424,293.042786 1610.091797,288.840942 1618.248047,282.746979 
	C1619.589844,281.744385 1620.980103,280.806427 1623.062500,279.333099 
	C1623.062500,282.167328 1623.105713,283.825806 1623.054077,285.481293 
	C1622.915283,289.927338 1624.538696,292.405487 1629.492432,292.059296 
	C1633.470947,291.781219 1637.497559,291.798615 1641.478882,292.055237 
	C1646.371948,292.370605 1647.969849,290.122131 1647.840210,285.509583 
	C1647.470581,272.356659 1647.214844,259.198792 1647.088013,246.041229 
	C1646.954712,232.216217 1647.137207,218.387009 1646.865723,204.565826 
	C1646.829468,202.718231 1645.012695,199.384628 1643.898560,199.332306 
	C1637.826172,199.047089 1631.715942,199.573929 1624.993286,200.410294 
M794.588562,200.844391 
	C772.419006,190.535217 748.578064,198.791519 738.065552,220.751251 
	C730.678406,236.182358 729.854736,252.188446 735.762512,268.299622 
	C742.013733,285.347473 755.774597,294.441376 773.935364,293.909424 
	C785.017212,293.584839 794.577576,289.238770 803.315979,282.734589 
	C804.649475,281.742035 806.022766,280.802856 808.107605,279.319702 
	C808.107605,282.021057 808.073792,283.512512 808.113464,285.001984 
	C808.275391,291.074951 809.165649,291.969421 815.076782,291.999939 
	C818.576111,292.017975 822.075562,292.011993 825.574951,292.001465 
	C832.233215,291.981415 832.888855,291.317657 832.815369,284.452271 
	C832.554993,260.126373 832.213135,235.801102 832.030823,211.474640 
	C831.926941,197.610291 833.418762,198.992584 819.386841,198.964233 
	C810.240906,198.945755 810.249207,198.962921 808.387878,207.846863 
	C808.304565,208.244629 807.818298,208.557953 807.498230,208.936005 
	C803.361938,206.287781 799.324585,203.702866 794.588562,200.844391 
M614.732117,256.500458 
	C614.732117,228.754944 614.732117,201.009430 614.732117,172.930130 
	C624.679565,172.930130 633.822144,172.949432 642.964600,172.923279 
	C648.949585,172.906174 649.830139,172.043442 649.981262,165.958862 
	C650.072266,162.294510 650.044739,158.626419 650.023865,154.960266 
	C649.988525,148.758499 649.366821,148.126801 643.105103,148.123291 
	C617.939880,148.109146 592.774658,148.090729 567.609497,148.127258 
	C553.506165,148.147736 554.708008,146.597092 554.656067,160.959229 
	C554.612793,172.930054 554.683960,172.930328 566.712646,172.930328 
	C573.965393,172.930344 581.218201,172.930328 588.880127,172.930328 
	C588.880127,175.566147 588.881470,177.369385 588.879944,179.172607 
	C588.859802,202.837814 588.851929,226.503021 588.813354,250.168198 
	C588.793823,262.167419 588.800903,274.167816 588.624023,286.165131 
	C588.561462,290.408051 590.157776,292.271820 594.518433,292.056946 
	C599.173462,291.827545 603.860840,291.794769 608.511780,292.063171 
	C613.424072,292.346588 614.972290,290.091064 614.874146,285.497620 
	C614.674866,276.168549 614.765320,266.833221 614.732117,256.500458 
M1774.329468,230.978165 
	C1773.879272,238.095993 1772.735474,245.250793 1773.112671,252.324524 
	C1774.130737,271.423187 1786.674194,286.823486 1805.044556,292.036011 
	C1820.178101,296.330109 1835.085083,294.685547 1849.603882,289.139954 
	C1862.298584,284.291107 1862.874146,282.374786 1856.770142,270.534576 
	C1854.933960,266.973083 1852.941162,266.275421 1849.206665,267.978943 
	C1843.647705,270.514679 1837.951782,273.170166 1832.028564,274.401337 
	C1818.662964,277.179321 1805.196289,270.537933 1799.875732,258.965393 
	C1807.637817,256.024414 1815.343994,253.031128 1823.103149,250.182266 
	C1834.343018,246.055405 1845.632690,242.064148 1856.874268,237.941925 
	C1859.373901,237.025314 1861.842285,236.088028 1861.516479,232.449066 
	C1860.238647,218.172684 1847.717163,202.215530 1834.368896,198.085480 
	C1808.060791,189.945450 1782.341675,203.771454 1774.329468,230.978165 
M1494.373169,292.212860 
	C1505.703369,295.140411 1516.889526,293.763672 1527.914917,290.731812 
	C1535.963867,288.518402 1536.535156,286.971130 1533.566895,278.947174 
	C1532.874634,277.075867 1531.984009,275.268311 1531.416870,273.362274 
	C1530.091919,268.910034 1527.522461,267.562775 1523.120239,269.391144 
	C1520.678711,270.405151 1518.062256,271.089539 1515.462769,271.616241 
	C1501.064087,274.533417 1489.998779,267.429718 1487.285034,253.319824 
	C1486.601807,249.767258 1486.510132,246.001053 1486.783936,242.381195 
	C1488.104492,224.920609 1499.527100,216.183411 1516.822754,219.081467 
	C1520.920410,219.768051 1526.156982,221.906784 1528.901733,220.204529 
	C1531.923584,218.330460 1532.494873,212.704208 1534.467041,208.884766 
	C1536.599365,204.755432 1535.353516,202.394119 1531.268677,200.791946 
	C1518.057861,195.610199 1504.561768,194.546997 1491.278198,199.659454 
	C1472.323975,206.954453 1464.348999,222.360397 1462.328613,241.592209 
	C1459.733521,266.295349 1471.664185,285.535889 1494.373169,292.212860 
M875.296265,259.934509 
	C872.337402,253.170044 871.812683,246.150055 872.979919,238.918411 
	C875.101562,225.773727 883.894714,218.206787 897.159668,218.730133 
	C901.415405,218.898041 905.719604,219.899521 909.828613,221.108047 
	C913.485535,222.183624 915.551941,221.217499 916.842346,217.803787 
	C918.075500,214.541428 919.318237,211.276825 920.725403,208.087662 
	C922.277283,204.570724 921.210449,202.230103 917.705139,201.088684 
	C913.456482,199.705200 909.206604,198.124680 904.829651,197.368790 
	C878.726929,192.860947 857.172607,205.468369 850.559814,229.649033 
	C848.664307,236.580338 847.984802,244.134369 848.316895,251.330444 
	C849.330139,273.286530 862.161804,288.615814 882.059265,292.705505 
	C892.215698,294.793060 902.261780,293.752045 912.179382,291.129578 
	C921.997986,288.533295 922.536865,287.443451 919.127197,278.184448 
	C918.782776,277.249207 918.443176,276.312073 918.085205,275.382019 
	C915.109680,267.651917 914.977478,267.600250 907.323730,270.012360 
	C905.423401,270.611267 903.501587,271.177429 901.553040,271.582275 
	C889.896545,274.003998 881.265442,270.316528 875.296265,259.934509 
M666.111816,215.510635 
	C666.053223,238.842819 666.068909,262.175598 665.872620,285.506653 
	C665.834045,290.095856 667.151550,292.414734 672.126282,292.060730 
	C676.105957,291.777557 680.134216,291.805756 684.118408,292.055115 
	C688.765320,292.345917 690.263855,290.298767 690.187073,285.842957 
	C690.000427,275.013550 689.936157,264.173401 690.207947,253.347290 
	C690.439209,244.130890 693.172852,235.704483 699.431396,228.603867 
	C704.698059,222.628510 711.372742,221.353592 718.903442,221.751648 
	C720.239136,221.822250 722.515991,219.836594 722.947021,218.382172 
	C724.359497,213.617035 725.164673,208.667511 726.118958,203.772430 
	C726.876770,199.884964 724.963196,198.434753 721.232788,198.078613 
	C709.186523,196.928619 700.188171,201.619293 693.883972,211.795959 
	C692.821655,213.510818 691.772522,215.233856 690.717346,216.953125 
	C689.327698,213.310349 689.081177,210.021179 688.759888,206.739349 
	C688.019287,199.172241 687.818298,199.000595 680.360352,198.996857 
	C677.193848,198.995270 674.026550,199.046814 670.861084,198.991867 
	C667.740417,198.937729 666.213562,200.497864 666.157471,203.518402 
	C666.089355,207.183640 666.122498,210.850754 666.111816,215.510635 
z"/>
<path fill="#FFFEFE" opacity="1.000000" stroke="none" 
	d="
M57.769279,96.999878 
	C57.769276,74.541077 57.769276,52.582279 57.769276,30.350956 
	C189.808167,30.350956 321.365570,30.350956 453.169800,30.350956 
	C453.169800,162.217712 453.169800,293.797424 453.169800,425.658234 
	C321.480530,425.658234 190.052399,425.658234 57.769279,425.658234 
	C57.769279,316.289398 57.769279,206.894638 57.769279,96.999878 
M403.507019,167.979935 
	C385.727478,146.358475 368.000732,124.692940 350.068756,103.198639 
	C348.623596,101.466377 345.770844,99.954796 343.567322,99.948105 
	C285.568604,99.772194 227.569092,99.773354 169.570297,99.941689 
	C167.338120,99.948174 164.423431,101.336250 162.986374,103.051865 
	C143.406570,126.426613 123.970268,149.922958 104.707260,173.559372 
	C102.905441,175.770279 101.615715,179.130829 101.606773,181.962418 
	C101.428253,238.461151 101.473366,294.960571 101.473267,351.459869 
	C101.473259,353.246460 101.473267,355.033051 101.473267,356.883057 
	C204.983078,356.883057 307.869415,356.883057 411.062073,356.883057 
	C411.062073,354.536285 411.062073,352.556519 411.062073,350.576721 
	C411.062073,296.577393 410.914825,242.577240 411.223328,188.579666 
	C411.268799,180.624649 410.158051,173.855621 403.507019,167.979935 
z"/>
<path fill="#FFFDFD" opacity="1.000000" stroke="none" 
	d="
M1128.591064,291.986511 
	C1123.296021,292.001465 1118.464355,292.028168 1113.632812,291.997864 
	C1107.855469,291.961609 1107.029907,291.171631 1107.132690,285.243195 
	C1107.274292,277.081909 1107.773682,268.922455 1107.748535,260.763367 
	C1107.641479,225.945602 1107.402832,191.128250 1107.200195,156.310806 
	C1107.155273,148.591431 1107.592651,148.041824 1115.340942,148.136353 
	C1133.488770,148.357727 1151.694946,147.892822 1169.757202,149.277039 
	C1178.795166,149.969666 1188.092163,152.991470 1196.371094,156.878540 
	C1229.463745,172.416016 1223.774536,217.382538 1201.810791,232.406982 
	C1190.677124,240.023010 1178.368164,243.410370 1165.199707,243.935715 
	C1154.932495,244.345337 1144.635864,244.017715 1133.516724,244.017715 
	C1133.516724,249.111572 1133.547485,253.550797 1133.510254,257.989441 
	C1133.430542,267.485748 1133.277588,276.981567 1133.237183,286.477936 
	C1133.224609,289.457947 1132.688599,291.842621 1128.591064,291.986511 
M1156.482910,219.243286 
	C1162.738525,218.545731 1169.185425,218.576721 1175.209106,216.995544 
	C1186.938843,213.916534 1193.919312,205.714905 1194.020630,196.393723 
	C1194.123413,186.928360 1186.896973,178.472672 1175.290283,175.062454 
	C1171.342407,173.902512 1167.145386,173.176468 1163.038574,173.055725 
	C1153.294312,172.769272 1143.536011,172.963577 1134.048584,172.963577 
	C1134.048584,188.792816 1134.048584,203.870300 1134.048584,219.243286 
	C1141.524902,219.243286 1148.506470,219.243286 1156.482910,219.243286 
z"/>
<path fill="#FFFDFD" opacity="1.000000" stroke="none" 
	d="
M1732.292725,284.598816 
	C1731.483398,280.372742 1730.240479,283.535400 1729.266357,284.043701 
	C1723.591431,287.005341 1718.254517,291.352386 1712.226318,292.759796 
	C1694.917114,296.800934 1679.248047,288.977753 1670.212036,273.116791 
	C1659.055298,253.533829 1661.847534,226.553085 1676.783325,209.617264 
	C1689.707764,194.962158 1711.756958,192.144577 1727.997803,203.065842 
	C1729.321411,203.955963 1730.677368,204.797989 1732.940796,206.257019 
	C1732.562012,198.331985 1737.373779,198.826324 1742.265991,198.916687 
	C1758.262329,199.212143 1756.082397,196.903290 1756.223633,213.092606 
	C1756.421265,235.743790 1755.960815,258.434204 1757.155273,281.035248 
	C1758.890259,313.863861 1729.857300,330.383850 1704.157593,327.738403 
	C1692.156372,326.503052 1681.837524,321.641541 1673.264038,313.009094 
	C1670.745728,310.473511 1670.504517,308.312683 1672.754272,305.702026 
	C1673.079712,305.324341 1673.364990,304.911774 1673.663574,304.511444 
	C1680.161011,295.799622 1680.180298,295.757080 1689.839966,300.212097 
	C1698.814331,304.351013 1708.094116,305.053314 1717.631348,302.828430 
	C1727.697754,300.480072 1731.760864,295.475555 1732.292725,284.598816 
M1732.084351,239.632660 
	C1733.779663,228.165817 1722.630615,218.317825 1713.705688,217.073502 
	C1701.977539,215.438370 1692.608032,221.527069 1689.277222,233.483307 
	C1686.291748,244.199936 1687.859863,254.326431 1694.524414,263.357727 
	C1700.260620,271.131195 1709.398315,273.966980 1717.976807,270.992401 
	C1725.894897,268.246826 1732.078125,259.306580 1732.083984,250.592255 
	C1732.086304,247.260513 1732.084351,243.928757 1732.084351,239.632660 
z"/>
<path fill="#FFFDFC" opacity="1.000000" stroke="none" 
	d="
M997.811890,275.201324 
	C992.899109,269.296356 988.122009,263.736237 983.566223,258.000305 
	C981.834656,255.820084 980.176697,255.322861 977.590210,256.339539 
	C972.512512,258.335419 965.319153,258.639221 962.736877,262.287354 
	C959.983032,266.177948 961.504700,273.122162 961.242126,278.737152 
	C961.109863,281.564056 961.118896,284.399750 961.138245,287.230988 
	C961.158813,290.247772 959.866394,291.978149 956.712158,291.985870 
	C951.548401,291.998474 946.384644,291.984711 941.220886,291.993896 
	C937.261475,292.000916 936.723511,289.424042 936.766846,286.270081 
	C936.936340,273.944794 937.193665,261.618622 937.172424,249.293213 
	C937.116577,216.812714 936.940063,184.332397 936.793091,151.852097 
	C936.758667,144.245178 936.927063,144.042084 944.650452,144.030258 
	C947.981934,144.025162 951.326111,144.213654 954.641907,143.985641 
	C959.308472,143.664795 961.251892,145.485687 961.248962,150.293686 
	C961.237793,168.781906 961.506287,187.270142 961.610413,205.758698 
	C961.672180,216.728561 961.621704,227.699066 961.621704,238.403839 
	C962.369568,238.832794 962.688965,239.172409 962.900269,239.114914 
	C983.673401,233.462204 1002.933838,225.904327 1010.302734,202.670914 
	C1010.818176,201.045929 1013.495483,199.207886 1015.299927,199.057388 
	C1020.924377,198.588348 1026.613281,198.940079 1032.275757,198.863602 
	C1036.762329,198.803009 1037.689941,201.062454 1036.695557,204.977570 
	C1033.294800,218.365997 1025.034546,228.333694 1014.476746,236.679276 
	C1011.224609,239.249908 1007.843994,241.657974 1004.126587,244.436172 
	C1005.274292,246.148834 1006.264832,247.800522 1007.421753,249.325974 
	C1016.276245,261.000275 1025.212036,272.613464 1033.982544,284.350159 
	C1035.182983,285.956451 1035.610352,288.140381 1036.395630,290.056885 
	C1034.291138,290.706177 1032.224854,291.623932 1030.071533,291.931519 
	C1027.786133,292.258026 1025.368408,291.696320 1023.094788,292.061035 
	C1014.758240,293.398376 1008.683594,290.436005 1004.315674,283.234497 
	C1002.605957,280.415710 1000.151123,278.048828 997.811890,275.201324 
z"/>
<path fill="#FFFEFD" opacity="1.000000" stroke="none" 
	d="
M1352.076538,188.999756 
	C1351.893066,175.841522 1351.820679,163.180435 1351.480591,150.526535 
	C1351.356323,145.904892 1352.855835,143.644180 1357.776001,143.981430 
	C1361.589355,144.242828 1365.435059,144.009521 1369.266235,144.038010 
	C1375.246338,144.082458 1375.995483,144.676132 1376.031250,150.582809 
	C1376.193726,177.400635 1376.266235,204.219025 1376.368286,231.037201 
	C1376.378174,233.653152 1376.369507,236.269165 1376.369507,238.875809 
	C1394.891846,238.577927 1418.365601,222.060806 1423.994141,205.273178 
	C1425.667480,200.282669 1428.065796,198.276917 1433.303101,198.780304 
	C1437.925049,199.224518 1442.622559,198.888016 1447.286621,198.888626 
	C1451.291626,198.889160 1452.552734,200.695847 1451.587769,204.639481 
	C1448.297729,218.085114 1440.094238,228.071838 1429.553467,236.445724 
	C1426.176392,239.128571 1422.670166,241.648819 1418.790161,244.569229 
	C1422.008545,248.924225 1425.091553,253.196274 1428.279053,257.388947 
	C1435.232422,266.534790 1442.301514,275.593719 1449.159912,284.809845 
	C1450.248779,286.272980 1450.485962,288.369995 1451.116943,290.173950 
	C1449.327515,290.781494 1447.539307,291.392578 1445.746460,291.990143 
	C1445.596191,292.040253 1445.415527,291.998047 1445.249023,292.001556 
	C1426.761841,292.390625 1426.775024,292.379730 1414.982666,278.045868 
	C1409.481201,271.358643 1403.839600,264.785004 1398.426758,258.027374 
	C1396.696045,255.866699 1394.995728,255.129044 1392.467407,256.341736 
	C1391.425049,256.841675 1390.281738,257.136108 1389.175903,257.498230 
	C1376.224731,261.739594 1376.223755,261.738342 1376.099243,275.598328 
	C1376.066284,279.262848 1375.934082,282.930420 1376.037476,286.591187 
	C1376.144409,290.377441 1374.517334,292.130585 1370.684204,292.024750 
	C1366.689575,291.914429 1362.689209,292.010773 1358.691406,292.000824 
	C1351.987183,291.984161 1351.448975,291.392639 1351.559082,284.443298 
	C1351.730469,273.617462 1351.973877,262.791626 1352.017456,251.965149 
	C1352.101440,231.143600 1352.067017,210.321564 1352.076538,188.999756 
z"/>
<path fill="#FFFDFD" opacity="1.000000" stroke="none" 
	d="
M1308.163086,203.348633 
	C1308.848877,200.026199 1310.632324,198.837784 1313.607300,198.932632 
	C1317.766602,199.065231 1321.935425,199.048828 1326.096069,198.939178 
	C1329.630371,198.846008 1331.251343,200.296967 1331.277710,203.943237 
	C1331.477905,231.587128 1331.746094,259.230560 1332.042603,286.873627 
	C1332.081055,290.453278 1330.498047,292.074493 1326.937622,292.017059 
	C1322.608643,291.947205 1318.259033,291.750519 1313.952515,292.070221 
	C1309.017578,292.436646 1307.341797,290.032013 1307.405762,285.594452 
	C1307.431030,283.844086 1307.409912,282.093048 1307.409912,279.232513 
	C1304.989380,280.988312 1303.558838,282.006531 1302.148560,283.052277 
	C1291.612793,290.865143 1279.971558,295.231323 1266.706909,293.663239 
	C1248.384033,291.497162 1235.866455,278.819061 1232.288208,258.742310 
	C1230.109131,246.517502 1231.276123,234.515915 1236.235474,223.024460 
	C1247.474976,196.981110 1276.208008,188.513611 1299.853027,204.267288 
	C1302.171265,205.811829 1304.393555,207.500580 1307.451782,209.688736 
	C1307.720947,207.179031 1307.904541,205.466766 1308.163086,203.348633 
M1276.272949,217.304672 
	C1260.034424,221.965576 1251.890747,238.348145 1257.837280,254.391342 
	C1263.540405,269.777893 1280.064209,276.488953 1295.076660,269.253906 
	C1302.819458,265.522400 1307.608154,259.597076 1307.148315,250.388824 
	C1306.957642,246.571686 1306.898560,242.721741 1307.163696,238.913437 
	C1307.746948,230.535492 1303.395996,225.055099 1296.823975,220.954651 
	C1290.800171,217.196350 1284.087280,216.368042 1276.272949,217.304672 
z"/>
<path fill="#FFFDFD" opacity="1.000000" stroke="none" 
	d="
M1625.305908,200.115860 
	C1631.715942,199.573929 1637.826172,199.047089 1643.898560,199.332306 
	C1645.012695,199.384628 1646.829468,202.718231 1646.865723,204.565826 
	C1647.137207,218.387009 1646.954712,232.216217 1647.088013,246.041229 
	C1647.214844,259.198792 1647.470581,272.356659 1647.840210,285.509583 
	C1647.969849,290.122131 1646.371948,292.370605 1641.478882,292.055237 
	C1637.497559,291.798615 1633.470947,291.781219 1629.492432,292.059296 
	C1624.538696,292.405487 1622.915283,289.927338 1623.054077,285.481293 
	C1623.105713,283.825806 1623.062500,282.167328 1623.062500,279.333099 
	C1620.980103,280.806427 1619.589844,281.744385 1618.248047,282.746979 
	C1610.091797,288.840942 1601.159424,293.042786 1590.872437,293.831116 
	C1570.613159,295.383667 1554.697632,284.128448 1549.225464,264.074585 
	C1545.423828,250.143417 1546.240479,236.362961 1551.956177,223.022110 
	C1562.974731,197.304031 1591.122192,188.677521 1614.714844,203.757446 
	C1617.340088,205.435410 1619.835449,207.316666 1622.729126,209.340042 
	C1623.560303,206.061951 1624.276733,203.236115 1625.305908,200.115860 
M1603.658569,217.525650 
	C1599.372070,217.564545 1594.921021,216.868011 1590.830444,217.782898 
	C1579.428589,220.333069 1571.831299,231.132584 1571.745605,243.861008 
	C1571.658813,256.759857 1579.592773,267.943390 1591.063599,271.090942 
	C1608.753296,275.944946 1623.010498,265.234619 1622.919678,247.166565 
	C1622.904663,244.170731 1623.473145,241.045502 1622.802734,238.209122 
	C1621.806396,233.992767 1620.972046,228.982834 1618.197998,226.129486 
	C1614.579956,222.408173 1609.133179,220.464920 1603.658569,217.525650 
z"/>
<path fill="#FFFDFD" opacity="1.000000" stroke="none" 
	d="
M794.937866,200.981171 
	C799.324585,203.702866 803.361938,206.287781 807.498230,208.936005 
	C807.818298,208.557953 808.304565,208.244629 808.387878,207.846863 
	C810.249207,198.962921 810.240906,198.945755 819.386841,198.964233 
	C833.418762,198.992584 831.926941,197.610291 832.030823,211.474640 
	C832.213135,235.801102 832.554993,260.126373 832.815369,284.452271 
	C832.888855,291.317657 832.233215,291.981415 825.574951,292.001465 
	C822.075562,292.011993 818.576111,292.017975 815.076782,291.999939 
	C809.165649,291.969421 808.275391,291.074951 808.113464,285.001984 
	C808.073792,283.512512 808.107605,282.021057 808.107605,279.319702 
	C806.022766,280.802856 804.649475,281.742035 803.315979,282.734589 
	C794.577576,289.238770 785.017212,293.584839 773.935364,293.909424 
	C755.774597,294.441376 742.013733,285.347473 735.762512,268.299622 
	C729.854736,252.188446 730.678406,236.182358 738.065552,220.751251 
	C748.578064,198.791519 772.419006,190.535217 794.937866,200.981171 
M773.980408,218.117859 
	C773.061768,218.507812 772.113281,218.839996 771.228882,219.296356 
	C757.688660,226.283234 752.630981,244.209167 760.238464,258.201965 
	C767.440186,271.448395 783.966309,276.168396 797.317749,268.504730 
	C804.226318,264.539276 808.491821,258.725555 807.995117,250.205276 
	C807.782349,246.555405 807.739868,242.867035 808.002563,239.223740 
	C808.604126,230.880432 804.398499,225.209198 797.824829,221.136322 
	C790.718079,216.733139 782.908936,215.753082 773.980408,218.117859 
z"/>
<path fill="#FFFCFC" opacity="1.000000" stroke="none" 
	d="
M614.734253,257.000488 
	C614.765320,266.833221 614.674866,276.168549 614.874146,285.497620 
	C614.972290,290.091064 613.424072,292.346588 608.511780,292.063171 
	C603.860840,291.794769 599.173462,291.827545 594.518433,292.056946 
	C590.157776,292.271820 588.561462,290.408051 588.624023,286.165131 
	C588.800903,274.167816 588.793823,262.167419 588.813354,250.168198 
	C588.851929,226.503021 588.859802,202.837814 588.879944,179.172607 
	C588.881470,177.369385 588.880127,175.566147 588.880127,172.930328 
	C581.218201,172.930328 573.965393,172.930344 566.712646,172.930328 
	C554.683960,172.930328 554.612793,172.930054 554.656067,160.959229 
	C554.708008,146.597092 553.506165,148.147736 567.609497,148.127258 
	C592.774658,148.090729 617.939880,148.109146 643.105103,148.123291 
	C649.366821,148.126801 649.988525,148.758499 650.023865,154.960266 
	C650.044739,158.626419 650.072266,162.294510 649.981262,165.958862 
	C649.830139,172.043442 648.949585,172.906174 642.964600,172.923279 
	C633.822144,172.949432 624.679565,172.930130 614.732117,172.930130 
	C614.732117,201.009430 614.732117,228.754944 614.734253,257.000488 
z"/>
<path fill="#FFFDFD" opacity="1.000000" stroke="none" 
	d="
M1774.473389,230.592316 
	C1782.341675,203.771454 1808.060791,189.945450 1834.368896,198.085480 
	C1847.717163,202.215530 1860.238647,218.172684 1861.516479,232.449066 
	C1861.842285,236.088028 1859.373901,237.025314 1856.874268,237.941925 
	C1845.632690,242.064148 1834.343018,246.055405 1823.103149,250.182266 
	C1815.343994,253.031128 1807.637817,256.024414 1799.875732,258.965393 
	C1805.196289,270.537933 1818.662964,277.179321 1832.028564,274.401337 
	C1837.951782,273.170166 1843.647705,270.514679 1849.206665,267.978943 
	C1852.941162,266.275421 1854.933960,266.973083 1856.770142,270.534576 
	C1862.874146,282.374786 1862.298584,284.291107 1849.603882,289.139954 
	C1835.085083,294.685547 1820.178101,296.330109 1805.044556,292.036011 
	C1786.674194,286.823486 1774.130737,271.423187 1773.112671,252.324524 
	C1772.735474,245.250793 1773.879272,238.095993 1774.473389,230.592316 
M1808.723022,240.176041 
	C1818.235107,236.879013 1827.747314,233.581970 1837.270264,230.281204 
	C1832.827148,218.775864 1823.800537,214.010254 1812.952515,216.985336 
	C1802.997314,219.715561 1795.345337,232.681702 1797.201904,244.169067 
	C1800.834961,242.922638 1804.411743,241.695541 1808.723022,240.176041 
z"/>
<path fill="#FFFDFC" opacity="1.000000" stroke="none" 
	d="
M1493.967041,292.136871 
	C1471.664185,285.535889 1459.733521,266.295349 1462.328613,241.592209 
	C1464.348999,222.360397 1472.323975,206.954453 1491.278198,199.659454 
	C1504.561768,194.546997 1518.057861,195.610199 1531.268677,200.791946 
	C1535.353516,202.394119 1536.599365,204.755432 1534.467041,208.884766 
	C1532.494873,212.704208 1531.923584,218.330460 1528.901733,220.204529 
	C1526.156982,221.906784 1520.920410,219.768051 1516.822754,219.081467 
	C1499.527100,216.183411 1488.104492,224.920609 1486.783936,242.381195 
	C1486.510132,246.001053 1486.601807,249.767258 1487.285034,253.319824 
	C1489.998779,267.429718 1501.064087,274.533417 1515.462769,271.616241 
	C1518.062256,271.089539 1520.678711,270.405151 1523.120239,269.391144 
	C1527.522461,267.562775 1530.091919,268.910034 1531.416870,273.362274 
	C1531.984009,275.268311 1532.874634,277.075867 1533.566895,278.947174 
	C1536.535156,286.971130 1535.963867,288.518402 1527.914917,290.731812 
	C1516.889526,293.763672 1505.703369,295.140411 1493.967041,292.136871 
z"/>
<path fill="#FFFDFD" opacity="1.000000" stroke="none" 
	d="
M875.492432,260.264618 
	C881.265442,270.316528 889.896545,274.003998 901.553040,271.582275 
	C903.501587,271.177429 905.423401,270.611267 907.323730,270.012360 
	C914.977478,267.600250 915.109680,267.651917 918.085205,275.382019 
	C918.443176,276.312073 918.782776,277.249207 919.127197,278.184448 
	C922.536865,287.443451 921.997986,288.533295 912.179382,291.129578 
	C902.261780,293.752045 892.215698,294.793060 882.059265,292.705505 
	C862.161804,288.615814 849.330139,273.286530 848.316895,251.330444 
	C847.984802,244.134369 848.664307,236.580338 850.559814,229.649033 
	C857.172607,205.468369 878.726929,192.860947 904.829651,197.368790 
	C909.206604,198.124680 913.456482,199.705200 917.705139,201.088684 
	C921.210449,202.230103 922.277283,204.570724 920.725403,208.087662 
	C919.318237,211.276825 918.075500,214.541428 916.842346,217.803787 
	C915.551941,221.217499 913.485535,222.183624 909.828613,221.108047 
	C905.719604,219.899521 901.415405,218.898041 897.159668,218.730133 
	C883.894714,218.206787 875.101562,225.773727 872.979919,238.918411 
	C871.812683,246.150055 872.337402,253.170044 875.492432,260.264618 
z"/>
<path fill="#FFFDFD" opacity="1.000000" stroke="none" 
	d="
M666.111816,215.013855 
	C666.122498,210.850754 666.089355,207.183640 666.157471,203.518402 
	C666.213562,200.497864 667.740417,198.937729 670.861084,198.991867 
	C674.026550,199.046814 677.193848,198.995270 680.360352,198.996857 
	C687.818298,199.000595 688.019287,199.172241 688.759888,206.739349 
	C689.081177,210.021179 689.327698,213.310349 690.717346,216.953125 
	C691.772522,215.233856 692.821655,213.510818 693.883972,211.795959 
	C700.188171,201.619293 709.186523,196.928619 721.232788,198.078613 
	C724.963196,198.434753 726.876770,199.884964 726.118958,203.772430 
	C725.164673,208.667511 724.359497,213.617035 722.947021,218.382172 
	C722.515991,219.836594 720.239136,221.822250 718.903442,221.751648 
	C711.372742,221.353592 704.698059,222.628510 699.431396,228.603867 
	C693.172852,235.704483 690.439209,244.130890 690.207947,253.347290 
	C689.936157,264.173401 690.000427,275.013550 690.187073,285.842957 
	C690.263855,290.298767 688.765320,292.345917 684.118408,292.055115 
	C680.134216,291.805756 676.105957,291.777557 672.126282,292.060730 
	C667.151550,292.414734 665.834045,290.095856 665.872620,285.506653 
	C666.068909,262.175598 666.053223,238.842819 666.111816,215.013855 
z"/>
<path fill="#FF4439" opacity="1.000000" stroke="none" 
	d="
M403.736145,168.252823 
	C410.158051,173.855621 411.268799,180.624649 411.223328,188.579666 
	C410.914825,242.577240 411.062073,296.577393 411.062073,350.576721 
	C411.062073,352.556519 411.062073,354.536285 411.062073,356.883057 
	C307.869415,356.883057 204.983078,356.883057 101.473267,356.883057 
	C101.473267,355.033051 101.473259,353.246460 101.473267,351.459869 
	C101.473366,294.960571 101.428253,238.461151 101.606773,181.962418 
	C101.615715,179.130829 102.905441,175.770279 104.707260,173.559372 
	C123.970268,149.922958 143.406570,126.426613 162.986374,103.051865 
	C164.423431,101.336250 167.338120,99.948174 169.570297,99.941689 
	C227.569092,99.773354 285.568604,99.772194 343.567322,99.948105 
	C345.770844,99.954796 348.623596,101.466377 350.068756,103.198639 
	C368.000732,124.692940 385.727478,146.358475 403.736145,168.252823 
M274.910858,275.323608 
	C273.110504,273.916443 271.310120,272.509277 269.571869,271.150635 
	C267.317810,272.854797 265.359039,274.335663 263.349670,275.854828 
	C261.231354,274.234680 259.279297,272.741669 257.200012,271.151398 
	C254.999008,272.798584 252.912842,274.359802 250.900269,275.865967 
	C248.654465,274.139008 246.696716,272.633545 244.727112,271.118958 
	C242.564926,272.811066 240.613358,274.338348 238.606140,275.909180 
	C236.505188,274.290192 234.540009,272.775818 232.485504,271.192627 
	C230.733398,272.399139 229.013184,273.583679 226.529449,275.293976 
	C226.529449,245.168427 226.529449,215.793594 226.529449,186.185028 
	C189.009232,186.185028 152.099197,186.185028 114.919815,186.185028 
	C114.919815,238.831268 114.919815,291.223083 114.919815,343.866577 
	C209.886337,343.866577 304.597321,343.866577 399.407898,343.866577 
	C399.407898,291.188477 399.407898,238.819641 399.407898,186.459717 
	C362.093994,186.459717 325.181030,186.459717 287.615082,186.459717 
	C287.615082,216.079315 287.615082,245.377151 287.615082,275.256989 
	C285.193329,273.535828 283.488373,272.324127 281.996918,271.264160 
	C279.589020,272.918304 277.547241,274.320953 274.910858,275.323608 
M166.499985,173.069565 
	C185.659866,173.069504 204.820267,172.998535 223.979126,173.138901 
	C227.187363,173.162415 228.556503,172.275879 229.396805,169.026871 
	C233.102005,154.700943 237.155319,140.465164 241.066544,126.192329 
	C242.230515,121.944702 243.342422,117.682800 244.609619,112.935005 
	C220.508728,112.935005 197.199951,112.886879 173.892639,113.048622 
	C172.417007,113.058853 170.578766,114.389915 169.539383,115.633286 
	C154.476212,133.652893 139.517395,151.759781 124.550858,169.860046 
	C123.870392,170.682968 123.352882,171.640640 122.405373,173.069565 
	C137.230743,173.069565 151.365356,173.069565 166.499985,173.069565 
M283.888153,168.656952 
	C284.317352,170.056564 284.746552,171.456192 285.148865,172.768188 
	C320.289368,172.768188 355.133850,172.768188 390.270447,172.768188 
	C389.897675,171.990738 389.773987,171.514999 389.490051,171.171814 
	C374.002686,152.452820 358.532990,133.718903 342.928741,115.097694 
	C341.943329,113.921753 339.902161,113.030296 338.346924,113.022247 
	C315.711487,112.904945 293.075195,112.958534 270.439117,112.994621 
	C270.001923,112.995316 269.565216,113.277611 268.729828,113.566139 
	C273.721863,131.712143 278.693726,149.784912 283.888153,168.656952 
z"/>
<path fill="#FF4237" opacity="1.000000" stroke="none" 
	d="
M1155.985474,219.243286 
	C1148.506470,219.243286 1141.524902,219.243286 1134.048584,219.243286 
	C1134.048584,203.870300 1134.048584,188.792816 1134.048584,172.963577 
	C1143.536011,172.963577 1153.294312,172.769272 1163.038574,173.055725 
	C1167.145386,173.176468 1171.342407,173.902512 1175.290283,175.062454 
	C1186.896973,178.472672 1194.123413,186.928360 1194.020630,196.393723 
	C1193.919312,205.714905 1186.938843,213.916534 1175.209106,216.995544 
	C1169.185425,218.576721 1162.738525,218.545731 1155.985474,219.243286 
z"/>
<path fill="#FF4338" opacity="1.000000" stroke="none" 
	d="
M1732.084351,240.114838 
	C1732.084351,243.928757 1732.086304,247.260513 1732.083984,250.592255 
	C1732.078125,259.306580 1725.894897,268.246826 1717.976807,270.992401 
	C1709.398315,273.966980 1700.260620,271.131195 1694.524414,263.357727 
	C1687.859863,254.326431 1686.291748,244.199936 1689.277222,233.483307 
	C1692.608032,221.527069 1701.977539,215.438370 1713.705688,217.073502 
	C1722.630615,218.317825 1733.779663,228.165817 1732.084351,240.114838 
z"/>
<path fill="#FF4238" opacity="1.000000" stroke="none" 
	d="
M1276.698486,217.220062 
	C1284.087280,216.368042 1290.800171,217.196350 1296.823975,220.954651 
	C1303.395996,225.055099 1307.746948,230.535492 1307.163696,238.913437 
	C1306.898560,242.721741 1306.957642,246.571686 1307.148315,250.388824 
	C1307.608154,259.597076 1302.819458,265.522400 1295.076660,269.253906 
	C1280.064209,276.488953 1263.540405,269.777893 1257.837280,254.391342 
	C1251.890747,238.348145 1260.034424,221.965576 1276.698486,217.220062 
z"/>
<path fill="#FF4338" opacity="1.000000" stroke="none" 
	d="
M1604.065918,217.641098 
	C1609.133179,220.464920 1614.579956,222.408173 1618.197998,226.129486 
	C1620.972046,228.982834 1621.806396,233.992767 1622.802734,238.209122 
	C1623.473145,241.045502 1622.904663,244.170731 1622.919678,247.166565 
	C1623.010498,265.234619 1608.753296,275.944946 1591.063599,271.090942 
	C1579.592773,267.943390 1571.658813,256.759857 1571.745605,243.861008 
	C1571.831299,231.132584 1579.428589,220.333069 1590.830444,217.782898 
	C1594.921021,216.868011 1599.372070,217.564545 1604.065918,217.641098 
z"/>
<path fill="#FF4238" opacity="1.000000" stroke="none" 
	d="
M774.376404,218.019379 
	C782.908936,215.753082 790.718079,216.733139 797.824829,221.136322 
	C804.398499,225.209198 808.604126,230.880432 808.002563,239.223740 
	C807.739868,242.867035 807.782349,246.555405 807.995117,250.205276 
	C808.491821,258.725555 804.226318,264.539276 797.317749,268.504730 
	C783.966309,276.168396 767.440186,271.448395 760.238464,258.201965 
	C752.630981,244.209167 757.688660,226.283234 771.228882,219.296356 
	C772.113281,218.839996 773.061768,218.507812 774.376404,218.019379 
z"/>
<path fill="#FF453A" opacity="1.000000" stroke="none" 
	d="
M1808.355713,240.322235 
	C1804.411743,241.695541 1800.834961,242.922638 1797.201904,244.169067 
	C1795.345337,232.681702 1802.997314,219.715561 1812.952515,216.985336 
	C1823.800537,214.010254 1832.827148,218.775864 1837.270264,230.281204 
	C1827.747314,233.581970 1818.235107,236.879013 1808.355713,240.322235 
z"/>
<path fill="#FFFEFE" opacity="1.000000" stroke="none" 
	d="
M275.208130,275.523621 
	C277.547241,274.320953 279.589020,272.918304 281.996918,271.264160 
	C283.488373,272.324127 285.193329,273.535828 287.615082,275.256989 
	C287.615082,245.377151 287.615082,216.079315 287.615082,186.459717 
	C325.181030,186.459717 362.093994,186.459717 399.407898,186.459717 
	C399.407898,238.819641 399.407898,291.188477 399.407898,343.866577 
	C304.597321,343.866577 209.886337,343.866577 114.919815,343.866577 
	C114.919815,291.223083 114.919815,238.831268 114.919815,186.185028 
	C152.099197,186.185028 189.009232,186.185028 226.529449,186.185028 
	C226.529449,215.793594 226.529449,245.168427 226.529449,275.293976 
	C229.013184,273.583679 230.733398,272.399139 232.485504,271.192627 
	C234.540009,272.775818 236.505188,274.290192 238.606140,275.909180 
	C240.613358,274.338348 242.564926,272.811066 244.727112,271.118958 
	C246.696716,272.633545 248.654465,274.139008 250.900269,275.865967 
	C252.912842,274.359802 254.999008,272.798584 257.200012,271.151398 
	C259.279297,272.741669 261.231354,274.234680 263.349670,275.854828 
	C265.359039,274.335663 267.317810,272.854797 269.571869,271.150635 
	C271.310120,272.509277 273.110504,273.916443 275.208130,275.523621 
z"/>
<path fill="#FFFEFE" opacity="1.000000" stroke="none" 
	d="
M165.999969,173.069565 
	C151.365356,173.069565 137.230743,173.069565 122.405373,173.069565 
	C123.352882,171.640640 123.870392,170.682968 124.550858,169.860046 
	C139.517395,151.759781 154.476212,133.652893 169.539383,115.633286 
	C170.578766,114.389915 172.417007,113.058853 173.892639,113.048622 
	C197.199951,112.886879 220.508728,112.935005 244.609619,112.935005 
	C243.342422,117.682800 242.230515,121.944702 241.066544,126.192329 
	C237.155319,140.465164 233.102005,154.700943 229.396805,169.026871 
	C228.556503,172.275879 227.187363,173.162415 223.979126,173.138901 
	C204.820267,172.998535 185.659866,173.069504 165.999969,173.069565 
z"/>
<path fill="#FFFEFE" opacity="1.000000" stroke="none" 
	d="
M283.776886,168.257324 
	C278.693726,149.784912 273.721863,131.712143 268.729828,113.566139 
	C269.565216,113.277611 270.001923,112.995316 270.439117,112.994621 
	C293.075195,112.958534 315.711487,112.904945 338.346924,113.022247 
	C339.902161,113.030296 341.943329,113.921753 342.928741,115.097694 
	C358.532990,133.718903 374.002686,152.452820 389.490051,171.171814 
	C389.773987,171.514999 389.897675,171.990738 390.270447,172.768188 
	C355.133850,172.768188 320.289368,172.768188 285.148865,172.768188 
	C284.746552,171.456192 284.317352,170.056564 283.776886,168.257324 
z"/>
</svg>